<svg width="284" height="284" viewBox="0 0 284 284" fill="none" xmlns="http://www.w3.org/2000/svg">
<path d="M0.482993 55.864C0.180278 55.2859 0.178608 54.5965 0.478518 54.017L27.3467 2.09781C27.9149 0.999849 29.3332 0.675187 30.3224 1.41663L140.377 83.9019C140.489 83.986 140.593 84.0817 140.685 84.1874L155.903 101.63C156.004 101.746 156.091 101.872 156.163 102.007L184.948 156.192C185.265 156.789 185.259 157.506 184.932 158.098L174.914 176.227C174.157 177.598 172.188 177.606 171.42 176.24L131.381 104.995C131.246 104.755 131.063 104.546 130.844 104.38L36.4321 32.9193C35.454 32.1789 34.046 32.4855 33.4643 33.5656L24.7252 49.7905C24.256 50.6616 24.4943 51.7449 25.2858 52.3387L94.9898 104.632L118.184 120.522C118.441 120.699 118.654 120.933 118.805 121.207L138.084 156.2C138.411 156.792 138.416 157.509 138.097 158.106L120.378 191.34C119.617 192.766 117.568 192.748 116.832 191.31L80.9934 121.221C80.849 120.938 80.6393 120.694 80.3819 120.509L49.563 98.3023C47.8484 97.0668 45.6388 98.9889 46.6248 100.858L82.2126 168.322C82.5247 168.913 82.5204 169.622 82.2011 170.21L72.8706 187.385C72.1069 188.791 70.0836 188.776 69.3414 187.358L0.482993 55.864Z" fill="black"/>
<path d="M253.687 1.39088C254.674 0.660445 256.081 0.985031 256.649 2.07445L283.517 53.6122C283.82 54.1921 283.819 54.8832 283.517 55.4628L164.693 282.926C164.348 283.586 163.665 284 162.92 284H121.402C120.658 284 119.975 283.586 119.63 282.926L83.5288 213.844C83.2202 213.253 83.2259 212.548 83.5439 211.963L92.8894 194.759C93.6506 193.358 95.665 193.367 96.4131 194.776L124.068 246.834L119.629 238.477C119.318 237.892 119.317 237.191 119.626 236.606L148.438 181.975C149.195 180.54 151.254 180.555 151.99 182.001L161.079 199.86C161.373 200.437 161.369 201.12 161.07 201.694L132.058 257.239C131.363 258.571 132.329 260.165 133.831 260.165H152.584C153.327 260.165 154.009 259.753 154.355 259.094L261.226 55.453C261.527 54.8789 261.532 54.1943 261.238 53.6165L252.152 35.7639C251.415 34.3176 249.354 34.3039 248.599 35.7402L198.224 131.54C197.472 132.97 195.422 132.964 194.678 131.529L185.609 114.033C185.31 113.457 185.309 112.773 185.606 112.197L208.598 67.5532C209.571 65.664 207.315 63.7617 205.617 65.0392L174.39 88.5298C173.533 89.1748 172.319 89.0283 171.64 88.1978L159.646 73.5347C158.922 72.65 159.086 71.3398 160.005 70.6603L253.687 1.39088Z" fill="black"/>
</svg>
